<mxfile host="app.diagrams.net" modified="2023-12-06T05:08:57.801Z" agent="Mozilla/5.0 (Windows NT 10.0; Win64; x64) AppleWebKit/537.36 (KHTML, like Gecko) Chrome/119.0.0.0 Safari/537.36" version="22.1.5" etag="m157RPMLsMk8jw1MvpWQ" type="github">
  <diagram name="Halaman-1" id="9vefP2RHLU304gYtI8F1">
    <mxGraphModel>
      <root>
        <mxCell id="0" />
        <mxCell id="1" parent="0" />
      </root>
    </mxGraphModel>
  </diagram>
</mxfile>
